<svg xmlns="http://www.w3.org/2000/svg" version="1.1" xmlns:xlink="http://www.w3.org/1999/xlink" xmlns:svgjs="http://svgjs.dev/svgjs" width="2000" height="2445" viewBox="0 0 2000 2445"><g transform="matrix(1,0,0,1,-0.5390835579515851,0.9898785425100414)"><svg viewBox="0 0 202 247" data-background-color="#000000" preserveAspectRatio="xMidYMid meet" height="2445" width="2000" xmlns="http://www.w3.org/2000/svg" xmlns:xlink="http://www.w3.org/1999/xlink"><g id="tight-bounds" transform="matrix(1,0,0,1,0.054447439353111804,-0.09999999999999432)"><svg viewBox="0 0 201.89110512129378 247.2" height="247.2" width="201.89110512129378"><g><svg viewBox="0 0 201.89110512129378 247.2" height="247.2" width="201.89110512129378"><g><svg viewBox="0 0 201.89110512129378 247.2" height="247.2" width="201.89110512129378"><g id="textblocktransform"><svg viewBox="0 0 201.89110512129378 247.2" height="247.2" width="201.89110512129378" id="textblock"><g><svg viewBox="0 0 201.89110512129378 247.2" height="247.2" width="201.89110512129378"><g transform="matrix(1,0,0,1,0,0)"><svg width="201.89110512129378" viewBox="0.76 -35.84 29.59 36.230000000000004" height="247.2" data-palette-color="#f7f7f7"><path d="M0.76-34.69L1.05-35.25Q4.61-35.57 7.96-35.71 11.3-35.84 14.58-35.84L14.58-35.84Q17.85-35.84 21.68-35.68 25.51-35.52 30.05-35.21L30.05-35.21 30.35-34.69 28.05-28.76 27.25-29Q27.42-29.86 27.5-30.6 27.59-31.35 27.59-32.01L27.59-32.01Q27.59-32.91 27.44-33.64L27.44-33.64Q24.34-33.84 21.86-33.94 19.38-34.03 17.46-34.06L17.46-34.06 17.46-4.39Q17.46-3.39 17.64-2.69 17.82-1.98 18.26-1.49 18.7-1 19.43-0.7 20.17-0.39 21.29-0.2L21.29-0.2 21.09 0.39Q19.63 0.2 18.55 0.1 17.48 0 16.75 0L16.75 0Q16.06 0 15.22 0.1 14.38 0.2 13.35 0.39L13.35 0.39 13.21 0.15Q13.7-0.56 13.7-2.44L13.7-2.44 13.7-34.06Q11.84-34.03 9.35-33.94 6.86-33.84 3.66-33.64L3.66-33.64Q3.52-32.84 3.52-31.93L3.52-31.93Q3.52-30.64 3.86-29L3.86-29 3.05-28.76 0.76-34.69Z" opacity="1" transform="matrix(1,0,0,1,0,0)" fill="#000000" class="wordmark-text-0" data-fill-palette-color="primary" id="text-0"></path></svg></g></svg></g></svg></g></svg></g></svg></g><defs></defs></svg><rect width="201.89110512129378" height="247.2" fill="none" stroke="none" visibility="hidden"></rect></g></svg></g></svg>